<svg xmlns="http://www.w3.org/2000/svg"  viewBox="0 0 205 26">
  <path fill="#0067B1" d="M55.257 13.53c-3.529 0-5.284 2.596-5.284 6.1 0 3.648 1.686 6.196 5.284 6.196 3.601 0 5.282-2.548 5.282-6.196 0-3.504-1.753-6.1-5.282-6.1m0 9.912c-.938 0-1.355-.842-1.355-3.813 0-2.712.278-3.716 1.355-3.716 1.075 0 1.354 1.004 1.354 3.716 0 2.972-.42 3.813-1.354 3.813m7.722-10.913v1.311h-1.544v2.667h1.544v9.065h3.787v-9.065h2.061V13.84h-2.061v-1.19c0-.713.36-1.103 1.357-1.103.21 0 .49.046.703.095V8.744c-.611-.07-1.173-.142-1.918-.142-2.501.001-3.929 1.052-3.929 3.927m-40.373 4.607c0-2.594-2.359-3.574-4.63-3.574-2.148 0-4.254.932-4.673 3.247l3.294.678c.041-.685.332-1.541 1.241-1.541.654 0 .98.465.98 1.165v1.009c-2.502.29-5.95 1.193-6.033 4.246-.058 2.158 1.381 3.433 3.269 3.433 1.117 0 2.235-.617 2.881-1.298.023.195.048.749.119 1.073h3.904c-.143-.16-.353-.56-.353-1.893v-6.545zm-3.787 5.448c-.322.424-.784.729-1.215.729-.679 0-1.099-.426-1.099-1.244 0-1.498.99-2 2.313-2.128v2.643zm13.074-9.024c-1.477 0-2.52.684-3.3 1.479h-.049l-.019-1.2h-3.706v11.733h3.787v-8.39c.346-.444.806-.729 1.232-.729.633 0 .873.371.873 1.04v8.078h3.787v-9.28c.001-1.609-.947-2.731-2.605-2.731m15.344.279h-3.766l-2.786 3.546h-.046V8.931H36.85v16.641h3.789V21.37l.796-.916h.046l1.846 5.118h3.928l-3.186-8.121zM8.749 16.917v-.13c1.206-.47 2.716-1.616 2.716-3.791 0-2.298-1.938-4.066-4.886-4.066H0v16.643h6.411c3.16 0 5.449-1.603 5.449-4.452 0-2.133-1.308-3.61-3.111-4.204m-4.661-5.041h1.473c.956 0 2.027.257 2.027 1.845 0 .984-.601 1.801-2.122 1.801H4.088v-3.646zm1.543 10.613H4.088v-4.162h1.543c1.356 0 2.122.819 2.122 2.058 0 1.705-1.212 2.104-2.122 2.104m143.735 1.192v-6.545c0-2.594-2.358-3.574-4.627-3.574-2.151 0-4.257.932-4.677 3.247l3.297.678c.04-.685.329-1.541 1.24-1.541.651 0 .982.465.982 1.165v1.009c-2.505.29-5.956 1.193-6.037 4.246-.058 2.158 1.38 3.433 3.27 3.433 1.117 0 2.233-.617 2.884-1.298.019.195.045.749.114 1.073h3.903c-.138-.161-.349-.56-.349-1.893m-3.784-1.097c-.327.424-.787.729-1.216.729-.681 0-1.101-.426-1.101-1.244 0-1.498.991-2 2.316-2.128v2.643zm-37.504-9.054c-3.484 0-5.216 2.805-5.216 6.125 0 3.249 1.637 6.172 5.26 6.172a4.842 4.842 0 0 0 4.703-3.204l-2.554-.936c-.187.946-.959 1.612-1.872 1.612-1.525 0-1.802-1.735-1.75-2.779h6.337v-.796c0-3.061-1.261-6.194-4.908-6.194m1.401 4.744h-2.83c-.058-1.104.328-2.36 1.403-2.36 1.309 0 1.463 1.271 1.427 2.36M123.2 13.84h3.785v11.733H123.2zm0-4.91h3.785v3.366H123.2zm10.901 6.984c.611 0 .913.328 1.098.793.166.446.188 1.006.188 1.474h3.229c0-1.168-.61-4.65-4.627-4.65-3.578 0-5.352 3.203-5.352 6.404 0 2.898 1.773 5.892 5.188 5.892 2.758 0 4.393-1.495 4.676-4.347l-2.946-.422c0 .889-.117 2.241-1.452 2.241-.979 0-1.4-.861-1.4-3.505-.003-2.337.138-3.88 1.398-3.88M75.409 8.931l-3.903 16.642h3.646l.726-3.364h3.857l.655 3.364h4.091L80.925 8.931h-5.516zm1.054 10.332l1.406-6.78h.084l1.197 6.78h-2.687zm41.847-3.835h-.063l-.038-1.589h-3.665v11.733h3.791v-7.597c.445-.53 1.111-.909 2.077-.909.653 0 1.114.158 1.544.325V13.56c-1.46 0-2.873.629-3.646 1.868M98.575 13.56c-1.586 0-2.717.854-3.379 1.57h-.049c-.358-.905-1.126-1.57-2.277-1.57-1.411 0-2.598.729-3.39 1.475h-.048l-.02-1.195h-3.696v11.733h3.716v-8.368c.319-.432.888-.722 1.285-.722.703 0 .889.419.889 1.051v8.039h3.718v-8.368c.246-.324.787-.722 1.295-.722.689 0 .881.419.881 1.051v8.039h3.715V16.22c0-1.621-1.066-2.66-2.64-2.66"/>
  <path fill-rule="evenodd" clip-rule="evenodd" fill="#0067B1" d="M172.647 6.295a84.736 84.736 0 0 1 4.452 1.908 98.667 98.667 0 0 0-13.478 6.71 84.663 84.663 0 0 0-4.431-2.161 93.214 93.214 0 0 1 13.457-6.457m-5.558-1.963a77.1 77.1 0 0 0-13.934 5.979c1.41.51 2.807 1.053 4.184 1.634a79.454 79.454 0 0 1 13.523-6.328 84.579 84.579 0 0 0-3.773-1.285"/>
  <path fill-rule="evenodd" clip-rule="evenodd" fill="#E31836" d="M182.765 6.106a82.069 82.069 0 0 0-11.826-4.631c-1.43.412-2.847.861-4.252 1.35a82.173 82.173 0 0 1 12.174 4.685 96.807 96.807 0 0 1 3.904-1.404m6.213-1.852A89.377 89.377 0 0 0 176.935 0a84.547 84.547 0 0 0-3.909.906 82.083 82.083 0 0 1 11.9 4.507 97.09 97.09 0 0 1 4.052-1.159m9.976 3.351a105.087 105.087 0 0 0-27.218 13.863 98.197 98.197 0 0 1 6.061 4.044 110.256 110.256 0 0 1 25.808-15.274 92.063 92.063 0 0 0-4.651-2.633m-6.722-3.194A95.424 95.424 0 0 0 163.9 17.148a93.667 93.667 0 0 1 5.714 3.059 98.768 98.768 0 0 1 27.802-13.395 90.329 90.329 0 0 0-5.184-2.401m-11.246 20.054c0-.585.493-1.061 1.097-1.061s1.096.476 1.096 1.061c0 .595-.492 1.072-1.096 1.072s-1.097-.477-1.097-1.072m.207 0c0 .487.396.862.89.862.49 0 .885-.375.885-.862 0-.471-.395-.85-.885-.85-.493 0-.89.379-.89.85"/>
  <path fill-rule="evenodd" clip-rule="evenodd" fill="#E31836" d="M182.629 25.065h-.205l-.351-.55h-.217v.55h-.18v-1.192h.534c.102 0 .207.006.301.058a.3.3 0 0 1 .136.258c0 .233-.171.321-.388.327l.37.549zm-.571-.696c.17 0 .406.029.406-.183 0-.156-.136-.176-.29-.176h-.317v.358h.201z"/>
</svg>
