<svg width="271" height="50" fill="none" xmlns="http://www.w3.org/2000/svg"><g clip-path="url(#clip0_66_94)" fill-rule="evenodd" clip-rule="evenodd"><path d="M128.881 44.224c1.444-2.166 2.707-4.332 3.971-6.137.18-.361.903-.361 1.444-.361h19.134c3.249 0 3.971-.722 3.971-3.971v-2.347c0-2.708-.722-3.43-3.249-3.43h-15.524c-1.624 0-3.249-.36-4.693-1.083-2.347-1.083-3.61-3.068-4.152-5.415a18.33 18.33 0 010-8.845c.903-3.61 3.61-6.137 7.401-6.498 1.805-.36 3.61-.18 5.415-.18H164.079c-.902 1.624-1.985 2.888-2.707 4.332-.903 1.805-2.166 2.166-3.971 2.166-5.776-.18-11.372 0-17.148 0-2.527 0-3.249.722-3.249 3.249v2.708c0 1.985.902 2.707 2.707 2.707h14.621c1.083 0 1.986 0 3.069.18 4.151.542 6.859 3.07 7.581 7.22a31.965 31.965 0 010 8.304c-.722 4.693-4.152 7.22-9.386 7.4-8.845.181-17.509 0-26.715 0zM180.144 12.455V21.3h20.939v6.498h-20.758v9.928h20.578c.902 0 1.444.18 1.805.902 1.083 1.805 2.346 3.61 3.61 5.596h-33.935V42.78 7.4c0-.902.18-1.443 1.263-1.443h31.228c.361 0 .541 0 1.263.18-1.444 2.166-2.707 4.152-3.971 6.137-.18.361-.902.361-1.263.361h-20.759v-.18zM48.375 21.12h21.3v-2.167V7.401c0-.903.18-1.444 1.264-1.264h6.317v38.267h-7.58V27.978h-21.12v16.426h-7.581V5.957h7.581v15.162h-.18zM81.769 44.224c.361-.722.541-1.083.722-1.625 5.596-11.913 11.191-23.646 16.787-35.56.361-.902.903-1.263 1.986-1.263h5.415c.541 0 1.083.361 1.263.722 5.957 12.275 11.733 24.73 17.69 37.004v.541h-8.123c-.18 0-.542-.541-.722-.902-.903-1.986-1.805-3.971-2.708-6.137-.361-.722-.722-.903-1.444-.903h-17.69c-.721 0-1.263.18-1.443.903-.903 1.985-1.805 4.151-2.708 6.137-.18.36-.722.902-1.263.902-2.527.361-5.055.18-7.762.18zm28.881-14.44c-2.347-5.235-4.513-10.47-7.04-16.066-2.346 5.596-4.693 10.65-6.86 16.065h13.9zM36.282 44.224c-8.484 0-16.787.18-25.09 0C4.331 44.044.18 39.53 0 32.672V17.329c.18-6.68 4.152-11.011 10.83-11.372 8.304-.361 16.607-.18 24.91-.18.18 0 .18 0 .542.18-1.264 2.166-2.527 4.151-3.971 6.137-.361.541-1.084.541-1.445.541H13.357c-3.79 0-5.234 1.625-5.234 5.235v13.899c0 3.79 1.624 5.415 5.415 5.415h16.787c1.263 0 1.985.361 2.707 1.444.723 1.986 1.986 3.61 3.25 5.596z" fill="#000"/><path d="M269.314 13.899H238.989c-1.263 0-1.624-.361-1.624-1.625V2.347c0-1.805.541-2.347 2.346-2.347h14.08c.541 0 1.263.18 1.624.542 4.513 4.151 9.025 8.483 13.538 12.815 0 .18 0 .361.361.542zM257.22 48.375v-1.263V18.05c0-1.263.361-1.624 1.625-1.624h9.747c1.805 0 2.347.361 2.347 2.166v14.26c0 .722-.361 1.444-.722 1.986-3.972 4.332-8.123 8.664-12.275 12.996-.18 0-.361.18-.722.541zM222.924 36.282h29.964c1.805 0 1.805 0 1.805 1.805v9.566c0 1.806-.541 2.347-2.346 2.347h-14.26c-.542 0-1.264-.18-1.625-.541-4.332-4.152-8.845-8.304-13.177-12.455 0-.18-.18-.361-.361-.722zM234.657 1.986V32.13c0 1.264-.361 1.805-1.805 1.805-3.249-.18-6.679 0-9.928 0-1.624 0-2.166-.541-2.166-2.166v-14.26c0-.541.181-1.264.542-1.625 4.151-4.332 8.303-8.664 12.455-13.176.361-.361.541-.542.902-.722z" fill="#557AB0"/></g><defs><clipPath id="clip0_66_94"><path fill="#fff" d="M0 0h270.939v50H0z"/></clipPath></defs></svg>