<svg width="285" height="50" fill="none" xmlns="http://www.w3.org/2000/svg"><path fill-rule="evenodd" clip-rule="evenodd" d="M.275 49.118h10.342V.202H.275v48.916zM48.208 29.691v19.427h-9.853v-17.75c0-4.752-2.586-7.477-6.639-7.477-2.725 0-5.45 1.538-6.848 3.913v21.314h-9.853V14.807h9.853v4.053c1.886-2.935 5.52-4.752 9.364-4.752 8.665 0 13.976 5.94 13.976 15.583zM51.91 45.484l2.935-6.848c3.215 2.375 7.407 3.633 11.6 3.633 3.075 0 5.032-1.188 5.032-2.795-.07-5.24-18.518-1.328-18.658-13.976-.07-6.43 5.66-11.39 13.766-11.39 4.822 0 9.644 1.188 13.068 3.913l-2.796 7.128c-2.655-2.027-6.987-3.564-10.691-3.564-2.516 0-4.193 1.188-4.193 2.725.07 4.962 18.658 2.236 18.867 14.535 0 6.36-5.59 10.971-13.556 10.971-5.87 0-11.25-1.397-15.374-4.332zM108.376 48.698c-1.258.63-3.215.979-5.032.979-8.036 0-13.697-5.101-13.697-13.977V24.17H83.29v-9.364h6.358V5.792h9.854v9.014h8.456v9.364h-8.456v11.042c0 3.214 2.446 5.241 5.311 5.241.978 0 2.306-.21 3.075-.49l.489 8.735zM137.097 36.19v-8.386c-1.467-2.516-4.542-4.402-7.966-4.402-4.822 0-8.526 3.633-8.526 8.525s3.704 8.525 8.526 8.525c3.424 0 6.499-1.816 7.966-4.262zm9.853-21.383v34.31h-9.853v-4.052c-1.677 2.795-5.8 4.751-10.133 4.751-8.944 0-16.002-7.966-16.002-17.889 0-9.923 7.058-17.82 16.002-17.82 4.263 0 8.456 1.958 10.133 4.753v-4.053h9.853zM173.361 14.737l-.559 9.224c-1.329-.49-3.005-.769-4.404-.769-2.236 0-5.8 1.818-7.476 5.171v20.755h-9.854V14.807h9.854v4.053c1.676-2.935 5.38-4.752 8.245-4.752 1.747 0 3.145.21 4.194.629zM198.38 28.014c-.419-3.424-3.563-5.94-7.197-5.94-4.124 0-6.849 2.236-7.757 5.94h14.954zm9.573 6.29h-24.667c.909 4.681 4.122 7.127 8.805 7.127 3.075 0 6.289-1.398 7.478-3.494l7.686 4.682c-2.516 4.542-8.246 7.198-15.374 7.198-10.062 0-18.028-7.827-18.028-18.03 0-9.992 7.827-17.68 17.819-17.68 9.294 0 16.561 7.198 16.561 16.353 0 1.187-.069 2.516-.28 3.843zM264.694 27.804v21.314h-9.924V29.831c0-4.123-2.306-6.639-5.939-6.639-2.445 0-4.962 1.537-6.15 3.634v22.292h-9.853V29.831c0-4.123-2.445-6.639-5.73-6.639-2.865 0-5.24 1.608-6.289 3.844v22.082h-9.853V14.807h9.853v3.913c1.607-2.236 4.891-4.612 9.783-4.612 4.333 0 7.478 1.398 9.574 4.822 2.097-2.446 5.939-4.822 10.482-4.822 8.175 0 14.046 5.45 14.046 13.696zM270.288 43.527c0-3.494 2.795-6.22 6.359-6.22 3.634 0 6.43 2.726 6.43 6.22 0 3.494-2.796 6.29-6.43 6.29-3.564 0-6.359-2.796-6.359-6.29z" fill="#000"/></svg>