<svg xmlns="http://www.w3.org/2000/svg" viewBox="0 0 136.9 50"><style>.st0{fill:#f79e37}</style><path class="st0" d="M74.5 9.3c-8.7 0-15.7 7-15.7 15.7s7 15.7 15.7 15.7 15.7-7 15.7-15.7c.1-8.7-7-15.7-15.7-15.7zm0 25.2c-5.2 0-9.5-4.2-9.5-9.5s4.2-9.5 9.5-9.5c5.2 0 9.5 4.2 9.5 9.5s-4.2 9.5-9.5 9.5zM96.6 41c-1.7 0-3.1-1.3-3.2-3-.4-8.4 6.1-15.5 14.5-15.9h1.2c1.7 0 3.1 1.5 3.1 3.2s-1.5 3.1-3.2 3.1h-.1c-4.9-.2-9 3.7-9.2 8.5v.7c.1 1.7-1.3 3.2-3 3.3h-.1zM25 0C11.2 0 0 11.2 0 25s11.2 25 25 25 25-11.2 25-25S38.8 0 25 0zm15.8 27.1c-1.9 3.3-7.5.5-12.7 3.5s-5.8 9.3-9.5 9.1c-.7 0-1.3-.3-1.9-.6-.5-.4-1-.8-1.3-1.4-2-3.5 3.4-7 3.3-12.8-.1-5.9-5.3-9.3-3.3-12.4.3-.4.6-.8 1.1-1.1.6-.5 1.4-.8 2.2-.8 3.6-.1 4.1 5.7 9 8.8 5.4 3.3 11.5.5 13.3 4 .5 1.2.5 2.5-.2 3.7z"/><path class="st0" d="M130.3 22.8l6-8.6c.9-1.3.8-3-.2-4.1-1.2-1.3-3.2-1.3-4.5-.1-.2.1-.3.3-.4.5L126 18c-.4.6-1.3.8-2 .4-.1-.1-.3-.2-.4-.4l-4.9-7c-.6-.9-1.6-1.4-2.6-1.4H96.4c-1.7 0-3.2 1.4-3.2 3.2v6.4c0 1.7 1.3 3.2 3 3.3 1.7.1 3.2-1.2 3.3-3v-2c0-.9.7-1.7 1.7-1.7h13.3l4.8 6.9c1 1.5 1 3.4 0 4.8l-5.6 8.1c-.9 1.3-.8 3 .3 4.1 1.2 1.2 3.2 1.2 4.5 0l.4-.4 4.8-7c.4-.6 1.3-.8 2-.4.1.1.3.2.4.4l5.2 7.5c1 1.4 3 1.8 4.4.8.2-.1.3-.2.4-.4 1.1-1.1 1.2-2.9.3-4.1l-6-8.6c-1.1-1.3-1.1-3.2-.1-4.7z"/></svg>