<svg width="145" height="50" fill="none" xmlns="http://www.w3.org/2000/svg"><path d="M56.514 34.212h-4.583a.635.635 0 00-.63.54L49.449 46.57a.386.386 0 00.378.443h2.188a.635.635 0 00.63-.54l.5-3.188a.642.642 0 01.628-.541h1.451c3.02 0 4.762-1.47 5.217-4.38.205-1.274.009-2.275-.585-2.976-.651-.77-1.806-1.176-3.34-1.176zm.53 4.316c-.251 1.654-1.508 1.654-2.723 1.654h-.692l.486-3.089a.384.384 0 01.377-.324h.317c.828 0 1.608 0 2.012.474.24.283.314.704.222 1.285zm13.171-.053H68.02a.38.38 0 00-.377.324l-.097.617-.154-.224c-.475-.693-1.534-.925-2.592-.925-2.425 0-4.497 1.847-4.9 4.438-.21 1.293.088 2.529.817 3.39.67.793 1.626 1.123 2.765 1.123 1.954 0 3.038-1.264 3.038-1.264l-.098.614a.387.387 0 00.217.409.38.38 0 00.16.036h1.977a.634.634 0 00.629-.542l1.186-7.553a.385.385 0 00-.216-.408.377.377 0 00-.16-.035zm-3.06 4.295c-.211 1.26-1.206 2.107-2.476 2.107-.637 0-1.146-.206-1.473-.595-.325-.387-.448-.937-.345-1.55.198-1.25 1.21-2.125 2.46-2.125.623 0 1.13.209 1.463.602.335.396.468.95.372 1.56zm14.75-4.295h-2.206a.636.636 0 00-.527.28l-3.042 4.506-1.29-4.33a.642.642 0 00-.611-.456h-2.167a.379.379 0 00-.312.16.385.385 0 00-.051.348l2.43 7.168-2.285 3.242a.386.386 0 00.312.607h2.203a.634.634 0 00.523-.275l7.336-10.647a.386.386 0 00-.313-.603z" fill="#253B80"/><path d="M89.207 34.212h-4.584a.635.635 0 00-.629.54L82.14 46.57a.385.385 0 00.377.443h2.353a.445.445 0 00.44-.378l.525-3.35a.641.641 0 01.629-.541h1.45c3.02 0 4.762-1.47 5.218-4.38.205-1.274.008-2.275-.586-2.976-.65-.77-1.805-1.176-3.34-1.176zm.529 4.316c-.25 1.654-1.507 1.654-2.723 1.654h-.69l.485-3.089a.383.383 0 01.377-.324h.317c.827 0 1.608 0 2.012.474.24.283.314.704.222 1.285zm13.171-.053h-2.194a.38.38 0 00-.376.324l-.097.617-.154-.224c-.476-.693-1.535-.925-2.592-.925-2.425 0-4.496 1.847-4.9 4.438-.209 1.293.088 2.529.817 3.39.67.793 1.626 1.123 2.765 1.123 1.954 0 3.038-1.264 3.038-1.264l-.098.614a.386.386 0 00.217.41c.05.023.105.035.16.035h1.977a.635.635 0 00.629-.542l1.187-7.553a.38.38 0 00-.011-.164.38.38 0 00-.368-.28zm-3.06 4.295c-.21 1.26-1.206 2.107-2.476 2.107-.636 0-1.146-.206-1.474-.595-.324-.387-.446-.937-.344-1.55.199-1.25 1.21-2.125 2.46-2.125.623 0 1.13.209 1.463.602.336.396.469.95.372 1.56zm5.648-8.234l-1.882 12.034a.395.395 0 00.087.309.383.383 0 00.29.134h1.891c.315 0 .581-.229.63-.54l1.855-11.818a.396.396 0 00-.087-.309.384.384 0 00-.29-.135h-2.118a.38.38 0 00-.376.325z" fill="#179BD7"/><path fill-rule="evenodd" clip-rule="evenodd" d="M40.17 15.12c0-5.136 3.747-9.011 8.714-9.011 5.016 0 8.799 3.91 8.799 9.094v.085c0 5.135-3.75 9.009-8.716 9.009-5.015 0-8.796-3.908-8.796-9.094v-.083zM48.968 0C40.147 0 33.24 6.679 33.24 15.205v.085c0 8.62 6.727 15.12 15.644 15.12 8.82 0 15.727-6.678 15.727-15.205v-.083c0-8.62-6.725-15.12-15.645-15.12h.001zm25.025 15.12c0-5.136 3.742-9.011 8.711-9.011 5.016 0 8.796 3.91 8.796 9.094v.085c0 5.135-3.745 9.009-8.71 9.009-5.016 0-8.797-3.908-8.797-9.094v-.083zM82.788 0C73.968 0 67.06 6.679 67.06 15.205v.085c0 8.62 6.726 15.12 15.644 15.12 8.824 0 15.73-6.678 15.73-15.205v-.083c0-8.62-6.728-15.12-15.646-15.12zm52.076.326c-3.688 0-6.709 1.438-9.218 4.394-1.716-2.838-4.611-4.394-8.236-4.394-3.807 0-6.18 1.794-7.833 3.706V1.421a.522.522 0 00-.525-.524h-6.281a.522.522 0 00-.528.524v27.383c0 .29.232.523.528.523h6.281a.521.521 0 00.525-.523V13.369c0-3.828 2.104-6.298 5.343-6.298 3.243 0 5.03 2.163 5.03 6.091v15.641c0 .29.238.524.527.524h6.284c.291 0 .53-.233.53-.524V13.318c0-3.911 1.995-6.247 5.339-6.247 4.156 0 5.027 3.343 5.027 6.14v15.592c0 .29.236.524.526.524h6.286a.527.527 0 00.531-.524V11.3C145 4.43 141.211.326 134.864.326zM23.2 12.556c.058.07.149.11.244.11.094 0 .182-.04.244-.11l9.728-11.123a.337.337 0 00.05-.345.318.318 0 00-.294-.188h-8.41a.334.334 0 00-.244.11l-5.521 6.32a.318.318 0 000 .42l4.202 4.806zm-1.204 1.324L10.754 1.018a.336.336 0 00-.242-.116H2.209a.326.326 0 00-.292.186.327.327 0 00.051.346l10.993 12.573L.076 28.797a.333.333 0 00-.048.346.329.329 0 00.294.186h8.386a.338.338 0 00.243-.116l8.857-10.13c.02-.015.03-.025.04-.035l4.148-4.746a.33.33 0 000-.422zM35.032 28.793L23.647 15.77a.322.322 0 00-.242-.112.326.326 0 00-.242.112l-4.158 4.754a.325.325 0 00-.006.42l7.237 8.278a.318.318 0 00.242.108h8.31a.322.322 0 00.292-.193.311.311 0 00-.048-.343z" fill="#179BD7"/><path fill-rule="evenodd" clip-rule="evenodd" d="M43.027 40.676l-1.88 3.6h2.62l-.74-3.6zm-2.345 4.493l-.906 1.744H38.66l4.069-7.617h1.005l1.647 7.617h-1.06l-.366-1.744h-3.273zm72.805 1.267c.416 0 .763-.08 1.04-.237a1.51 1.51 0 00.611-.605c.131-.246.197-.5.197-.76a.946.946 0 00-.191-.595c-.127-.165-.345-.325-.652-.478l-1.005-.427c-.57-.254-.98-.53-1.23-.83-.25-.3-.375-.665-.375-1.096 0-.468.119-.882.358-1.24a2.3 2.3 0 01.999-.823c.427-.192.918-.288 1.472-.288.462.007.867.07 1.213.19.346.118.651.297.912.535l-.174 1.073a3.025 3.025 0 00-2.066-.819c-.478 0-.869.12-1.172.358a1.106 1.106 0 00-.456.91c0 .208.075.385.225.531.15.146.425.312.825.496l.982.439c.531.26.907.543 1.126.846.219.304.329.667.329 1.09 0 .484-.104.93-.312 1.338-.208.407-.543.74-1.005.997-.461.257-1.054.386-1.778.386-.993 0-1.774-.25-2.344-.749l.185-1.142c.684.6 1.447.9 2.286.9zm5.562-3.73a2.38 2.38 0 00-.745 1.159h3.349c.007-.062.011-.146.011-.254 0-.431-.115-.769-.346-1.015-.231-.246-.558-.368-.982-.368-.493 0-.922.16-1.287.478zm3.036-.715c.382.42.573.963.573 1.63 0 .224-.012.409-.036.555-.023.146-.062.319-.115.518h-4.342c-.023.577.127 1.021.45 1.333.323.31.763.466 1.317.466.385 0 .735-.048 1.051-.144.316-.096.627-.24.935-.433l-.139.865c-.592.4-1.293.6-2.101.6-.531 0-.992-.113-1.38-.34a2.24 2.24 0 01-.889-.94c-.204-.4-.306-.85-.306-1.349 0-.492.122-1.001.369-1.528.246-.526.62-.968 1.12-1.326.501-.357 1.117-.536 1.848-.536.716 0 1.265.21 1.645.629zm4.133.42c-.454 0-.839.164-1.154.49-.316.327-.524.802-.624 1.425l-.45 2.848h-1.028l.889-5.627h.993l-.15.956c.462-.66 1.017-.99 1.662-.99.163 0 .313.01.451.034l-.138.9a2.774 2.774 0 00-.451-.036zm3.089 4.762h-.959l-1.338-5.626h1.027l.959 4.393 2.343-4.393h1.074l-3.106 5.626zm3.855-6.71a.557.557 0 01-.156-.404c0-.2.076-.372.23-.518a.752.752 0 01.532-.22c.162 0 .295.054.398.161a.56.56 0 01.156.404.697.697 0 01-.231.513.74.74 0 01-.531.225.53.53 0 01-.398-.161zm-.121 6.71h-1.029l.866-5.626h1.04l-.877 5.626zm2.406-.138a2.446 2.446 0 01-.889-.94 2.678 2.678 0 01-.324-1.308c0-.6.137-1.161.41-1.684.274-.523.67-.943 1.19-1.262.519-.319 1.13-.479 1.83-.479.677 0 1.227.17 1.651.508l-.173 1.049c-.393-.415-.905-.623-1.536-.623a2.15 2.15 0 00-1.195.34 2.33 2.33 0 00-.814.894c-.193.37-.289.765-.289 1.188 0 .515.146.932.439 1.25.292.32.693.479 1.201.479.315 0 .631-.058.947-.173.316-.115.596-.284.843-.507l-.162 1.06c-.3.2-.601.342-.901.427-.3.085-.619.127-.958.127-.47 0-.893-.116-1.27-.346zm5.945-4.33a2.38 2.38 0 00-.745 1.16h3.349c.007-.062.011-.146.011-.254 0-.431-.115-.77-.346-1.015-.232-.246-.558-.368-.982-.368-.492 0-.921.159-1.287.478zm3.037-.714c.38.419.571.963.571 1.63 0 .224-.011.409-.035.554-.022.147-.061.32-.115.52h-4.342c-.023.575.127 1.02.45 1.332.324.31.763.466 1.317.466.385 0 .736-.048 1.051-.144.315-.096.627-.24.935-.433l-.138.865c-.593.4-1.294.6-2.102.6-.531 0-.991-.113-1.38-.34a2.246 2.246 0 01-.889-.94c-.204-.4-.306-.85-.306-1.349 0-.492.123-1.001.369-1.528.246-.526.62-.968 1.12-1.326.501-.357 1.117-.536 1.848-.536.716 0 1.265.21 1.646.629z" fill="#737373"/></svg>